<svg width="103" height="20" viewBox="0 0 103 20" fill="none" xmlns="http://www.w3.org/2000/svg">
<g clip-path="url(#clip0_5816_481)">
<path d="M100.373 11.1999C100.374 11.1947 100.374 11.1896 100.374 11.1844C100.374 10.115 99.5036 9.24485 98.4341 9.24485H97.9047L100.226 3.64662C100.635 2.65881 100.164 1.522 99.1762 1.11248C98.1881 0.703243 97.0513 1.17415 96.6421 2.16223L95.1915 5.66413L93.741 2.16209C93.3316 1.17415 92.1948 0.703243 91.2069 1.11248C90.2189 1.52186 89.748 2.65854 90.1573 3.64649L91.4174 6.68888C91.2584 6.78281 91.114 6.89872 90.9882 7.03248C90.6342 6.6562 90.1324 6.4204 89.5762 6.42026C88.5067 6.42026 87.6367 7.29038 87.6367 8.3599V12.5964C87.6367 16.108 90.4936 18.9649 94.0052 18.9649C97.5167 18.9649 100.374 16.108 100.374 12.5964L100.373 11.1999ZM91.6106 2.08697C92.0612 1.90021 92.5798 2.11513 92.7665 2.56584L94.7042 7.24397C94.7859 7.44103 94.9782 7.56957 95.1915 7.56957C95.4048 7.56957 95.597 7.44103 95.6787 7.24397L97.6164 2.56584C97.8032 2.11513 98.3218 1.90021 98.7725 2.08684C99.2232 2.27374 99.438 2.7923 99.2513 3.24287L96.7628 9.24485H94.3399L94.34 8.3599C94.3399 7.30659 93.4956 6.44732 92.4483 6.4215L91.1318 3.24301C90.945 2.7923 91.1599 2.27374 91.6106 2.08697ZM92.4004 9.24485C92.0818 9.24485 91.7812 9.32258 91.5157 9.45936V8.3599C91.5157 7.87197 91.9126 7.47509 92.4004 7.47509C92.8883 7.47509 93.2852 7.87211 93.2854 8.3599L93.2852 9.24485H92.4004ZM88.6914 8.3599C88.6914 7.87197 89.0883 7.47495 89.5761 7.47495C90.064 7.47509 90.4609 7.87211 90.461 8.3599V11.1842C90.4609 11.672 90.064 12.0689 89.5762 12.0689C89.0884 12.0689 88.6914 11.672 88.6914 11.1842V8.3599ZM94.0052 17.9102C91.182 17.9102 88.8662 15.6969 88.7013 12.9143C88.9643 13.0478 89.2615 13.1237 89.5762 13.1237C90.1324 13.1237 90.6343 12.8879 90.9884 12.5115C91.3424 12.8879 91.8442 13.1237 92.4005 13.1237H97.0219C97.3132 13.1237 97.5493 12.8877 97.5493 12.5964C97.5493 12.3052 97.3132 12.069 97.0219 12.069H92.4005C91.9127 12.069 91.5157 11.672 91.5157 11.1842C91.5159 10.6964 91.9127 10.2995 92.4005 10.2995H93.8124C93.8126 10.2995 93.8126 10.2995 93.8126 10.2995H93.8127C93.8127 10.2995 93.8127 10.2995 93.8128 10.2995H97.1123C97.1131 10.2995 97.1141 10.2997 97.1149 10.2997C97.1162 10.2997 97.1173 10.2995 97.1185 10.2995H98.4341C98.9201 10.2995 99.3158 10.6931 99.3191 11.1783C99.3189 11.1831 99.3189 11.1881 99.3189 11.193V12.5964C99.3189 15.5264 96.9352 17.9102 94.0052 17.9102Z" fill="#FFBC33"/>
</g>
<path d="M3.648 13.44L3.504 10.448L8.864 4.8H11.744L6.912 10L5.472 11.536L3.648 13.44ZM1.328 16V4.8H3.904V16H1.328ZM8.992 16L5.008 11.12L6.704 9.28L12.016 16H8.992ZM14.2757 16V7.392H16.7717V16H14.2757ZM15.5237 6.192C15.0651 6.192 14.6917 6.05867 14.4037 5.792C14.1157 5.52533 13.9717 5.19467 13.9717 4.8C13.9717 4.40533 14.1157 4.07467 14.4037 3.808C14.6917 3.54133 15.0651 3.408 15.5237 3.408C15.9824 3.408 16.3557 3.536 16.6437 3.792C16.9317 4.03733 17.0757 4.35733 17.0757 4.752C17.0757 5.168 16.9317 5.51467 16.6437 5.792C16.3664 6.05867 15.9931 6.192 15.5237 6.192ZM24.0642 16.128C23.2536 16.128 22.5229 15.9467 21.8722 15.584C21.2216 15.2107 20.7042 14.6933 20.3202 14.032C19.9469 13.3707 19.7602 12.592 19.7602 11.696C19.7602 10.7893 19.9469 10.0053 20.3202 9.344C20.7042 8.68267 21.2216 8.17067 21.8722 7.808C22.5229 7.44533 23.2536 7.264 24.0642 7.264C24.7896 7.264 25.4242 7.424 25.9682 7.744C26.5122 8.064 26.9336 8.54933 27.2323 9.2C27.5309 9.85067 27.6803 10.6827 27.6803 11.696C27.6803 12.6987 27.5363 13.5307 27.2483 14.192C26.9602 14.8427 26.5442 15.328 26.0002 15.648C25.4669 15.968 24.8216 16.128 24.0642 16.128ZM24.4962 14.08C24.9016 14.08 25.2696 13.984 25.6002 13.792C25.9309 13.6 26.1922 13.328 26.3842 12.976C26.5869 12.6133 26.6882 12.1867 26.6882 11.696C26.6882 11.1947 26.5869 10.768 26.3842 10.416C26.1922 10.064 25.9309 9.792 25.6002 9.6C25.2696 9.408 24.9016 9.312 24.4962 9.312C24.0802 9.312 23.7069 9.408 23.3762 9.6C23.0456 9.792 22.7789 10.064 22.5762 10.416C22.3842 10.768 22.2882 11.1947 22.2882 11.696C22.2882 12.1867 22.3842 12.6133 22.5762 12.976C22.7789 13.328 23.0456 13.6 23.3762 13.792C23.7069 13.984 24.0802 14.08 24.4962 14.08ZM26.7522 16V14.24L26.8003 11.68L26.6402 9.136V4.128H29.1362V16H26.7522ZM35.6224 16.128C34.8864 16.128 34.177 16.0427 33.4944 15.872C32.8224 15.6907 32.289 15.4667 31.8944 15.2L32.7264 13.408C33.121 13.6533 33.585 13.856 34.1184 14.016C34.6624 14.1653 35.1957 14.24 35.7184 14.24C36.2944 14.24 36.6997 14.1707 36.9344 14.032C37.1797 13.8933 37.3024 13.7013 37.3024 13.456C37.3024 13.2533 37.2064 13.104 37.0144 13.008C36.833 12.9013 36.5877 12.8213 36.2784 12.768C35.969 12.7147 35.6277 12.6613 35.2544 12.608C34.8917 12.5547 34.5237 12.4853 34.1504 12.4C33.777 12.304 33.4357 12.1653 33.1264 11.984C32.817 11.8027 32.5664 11.5573 32.3744 11.248C32.193 10.9387 32.1024 10.5387 32.1024 10.048C32.1024 9.504 32.257 9.024 32.5664 8.608C32.8864 8.192 33.345 7.86667 33.9424 7.632C34.5397 7.38667 35.2544 7.264 36.0864 7.264C36.673 7.264 37.2704 7.328 37.8784 7.456C38.4864 7.584 38.993 7.77067 39.3984 8.016L38.5664 9.792C38.1504 9.54667 37.729 9.38133 37.3024 9.296C36.8864 9.2 36.481 9.152 36.0864 9.152C35.5317 9.152 35.1264 9.22667 34.8704 9.376C34.6144 9.52533 34.4864 9.71733 34.4864 9.952C34.4864 10.1653 34.577 10.3253 34.7584 10.432C34.9504 10.5387 35.201 10.624 35.5104 10.688C35.8197 10.752 36.1557 10.8107 36.5184 10.864C36.8917 10.9067 37.265 10.976 37.6384 11.072C38.0117 11.168 38.3477 11.3067 38.6464 11.488C38.9557 11.6587 39.2064 11.8987 39.3984 12.208C39.5904 12.5067 39.6864 12.9013 39.6864 13.392C39.6864 13.9253 39.5264 14.4 39.2064 14.816C38.8864 15.2213 38.4224 15.5413 37.8144 15.776C37.217 16.0107 36.4864 16.128 35.6224 16.128ZM42.6824 16V4.8H45.2744V13.888H50.8904V16H42.6824ZM53.4426 16V7.392H55.9386V16H53.4426ZM54.6906 6.192C54.232 6.192 53.8586 6.05867 53.5706 5.792C53.2826 5.52533 53.1386 5.19467 53.1386 4.8C53.1386 4.40533 53.2826 4.07467 53.5706 3.808C53.8586 3.54133 54.232 3.408 54.6906 3.408C55.1493 3.408 55.5226 3.536 55.8106 3.792C56.0986 4.03733 56.2426 4.35733 56.2426 4.752C56.2426 5.168 56.0986 5.51467 55.8106 5.792C55.5333 6.05867 55.16 6.192 54.6906 6.192ZM61.5991 14.24L61.6631 11.2L65.6791 7.392H68.6551L64.7991 11.312L63.5031 12.368L61.5991 14.24ZM59.5351 16V4.128H62.0311V16H59.5351ZM65.9511 16L63.0391 12.384L64.6071 10.448L68.9751 16H65.9511ZM75.2902 16.128C74.3089 16.128 73.4449 15.936 72.6982 15.552C71.9622 15.168 71.3916 14.6453 70.9862 13.984C70.5809 13.312 70.3782 12.5493 70.3782 11.696C70.3782 10.832 70.5756 10.0693 70.9702 9.408C71.3756 8.736 71.9249 8.21333 72.6182 7.84C73.3116 7.456 74.0956 7.264 74.9702 7.264C75.8129 7.264 76.5702 7.44533 77.2422 7.808C77.9249 8.16 78.4636 8.672 78.8582 9.344C79.2529 10.0053 79.4502 10.8 79.4502 11.728C79.4502 11.824 79.4449 11.936 79.4342 12.064C79.4236 12.1813 79.4129 12.2933 79.4022 12.4H72.4102V10.944H78.0902L77.1302 11.376C77.1302 10.928 77.0396 10.5387 76.8582 10.208C76.6769 9.87733 76.4262 9.62133 76.1062 9.44C75.7862 9.248 75.4129 9.152 74.9862 9.152C74.5596 9.152 74.1809 9.248 73.8502 9.44C73.5302 9.62133 73.2796 9.88267 73.0982 10.224C72.9169 10.5547 72.8262 10.9493 72.8262 11.408V11.792C72.8262 12.2613 72.9276 12.6773 73.1302 13.04C73.3436 13.392 73.6369 13.664 74.0102 13.856C74.3942 14.0373 74.8422 14.128 75.3542 14.128C75.8129 14.128 76.2129 14.0587 76.5542 13.92C76.9062 13.7813 77.2262 13.5733 77.5142 13.296L78.8422 14.736C78.4476 15.184 77.9516 15.5307 77.3542 15.776C76.7569 16.0107 76.0689 16.128 75.2902 16.128Z" fill="black"/>
<defs>
<clipPath id="clip0_5816_481">
<rect width="18" height="18" fill="white" transform="translate(85 1)"/>
</clipPath>
</defs>
</svg>
