<svg width="103" height="20" viewBox="0 0 103 20" fill="none" xmlns="http://www.w3.org/2000/svg">
<g clip-path="url(#clip0_5828_482)">
<path d="M100.373 11.1999C100.374 11.1947 100.374 11.1896 100.374 11.1844C100.374 10.115 99.5036 9.24485 98.4341 9.24485H97.9047L100.226 3.64662C100.635 2.65881 100.164 1.522 99.1762 1.11248C98.1881 0.703243 97.0513 1.17415 96.6421 2.16223L95.1915 5.66413L93.741 2.16209C93.3316 1.17415 92.1948 0.703243 91.2069 1.11248C90.2189 1.52186 89.748 2.65854 90.1573 3.64649L91.4174 6.68888C91.2584 6.78281 91.114 6.89872 90.9882 7.03248C90.6342 6.6562 90.1324 6.4204 89.5762 6.42026C88.5067 6.42026 87.6367 7.29038 87.6367 8.3599V12.5964C87.6367 16.108 90.4936 18.9649 94.0052 18.9649C97.5167 18.9649 100.374 16.108 100.374 12.5964L100.373 11.1999ZM91.6106 2.08697C92.0612 1.90021 92.5798 2.11513 92.7665 2.56584L94.7042 7.24397C94.7859 7.44103 94.9782 7.56957 95.1915 7.56957C95.4048 7.56957 95.597 7.44103 95.6787 7.24397L97.6164 2.56584C97.8032 2.11513 98.3218 1.90021 98.7725 2.08684C99.2232 2.27374 99.438 2.7923 99.2513 3.24287L96.7628 9.24485H94.3399L94.34 8.3599C94.3399 7.30659 93.4956 6.44732 92.4483 6.4215L91.1318 3.24301C90.945 2.7923 91.1599 2.27374 91.6106 2.08697ZM92.4004 9.24485C92.0818 9.24485 91.7812 9.32258 91.5157 9.45936V8.3599C91.5157 7.87197 91.9126 7.47509 92.4004 7.47509C92.8883 7.47509 93.2852 7.87211 93.2854 8.3599L93.2852 9.24485H92.4004ZM88.6914 8.3599C88.6914 7.87197 89.0883 7.47495 89.5761 7.47495C90.064 7.47509 90.4609 7.87211 90.461 8.3599V11.1842C90.4609 11.672 90.064 12.0689 89.5762 12.0689C89.0884 12.0689 88.6914 11.672 88.6914 11.1842V8.3599ZM94.0052 17.9102C91.182 17.9102 88.8662 15.6969 88.7013 12.9143C88.9643 13.0478 89.2615 13.1237 89.5762 13.1237C90.1324 13.1237 90.6343 12.8879 90.9884 12.5115C91.3424 12.8879 91.8442 13.1237 92.4005 13.1237H97.0219C97.3132 13.1237 97.5493 12.8877 97.5493 12.5964C97.5493 12.3052 97.3132 12.069 97.0219 12.069H92.4005C91.9127 12.069 91.5157 11.672 91.5157 11.1842C91.5159 10.6964 91.9127 10.2995 92.4005 10.2995H93.8124C93.8126 10.2995 93.8126 10.2995 93.8126 10.2995H93.8127C93.8127 10.2995 93.8127 10.2995 93.8128 10.2995H97.1123C97.1131 10.2995 97.1141 10.2997 97.1149 10.2997C97.1162 10.2997 97.1173 10.2995 97.1185 10.2995H98.4341C98.9201 10.2995 99.3158 10.6931 99.3191 11.1783C99.3189 11.1831 99.3189 11.1881 99.3189 11.193V12.5964C99.3189 15.5264 96.9352 17.9102 94.0052 17.9102Z" fill="#FFBC33"/>
</g>
<path d="M3.648 13.44L3.504 10.448L8.864 4.8H11.744L6.912 10L5.472 11.536L3.648 13.44ZM1.328 16V4.8H3.904V16H1.328ZM8.992 16L5.008 11.12L6.704 9.28L12.016 16H8.992ZM14.2757 16V7.392H16.7717V16H14.2757ZM15.5237 6.192C15.0651 6.192 14.6917 6.05867 14.4037 5.792C14.1157 5.52533 13.9717 5.19467 13.9717 4.8C13.9717 4.40533 14.1157 4.07467 14.4037 3.808C14.6917 3.54133 15.0651 3.408 15.5237 3.408C15.9824 3.408 16.3557 3.536 16.6437 3.792C16.9317 4.03733 17.0757 4.35733 17.0757 4.752C17.0757 5.168 16.9317 5.51467 16.6437 5.792C16.3664 6.05867 15.9931 6.192 15.5237 6.192ZM24.0642 16.128C23.2536 16.128 22.5229 15.9467 21.8722 15.584C21.2216 15.2107 20.7042 14.6933 20.3202 14.032C19.9469 13.3707 19.7602 12.592 19.7602 11.696C19.7602 10.7893 19.9469 10.0053 20.3202 9.344C20.7042 8.68267 21.2216 8.17067 21.8722 7.808C22.5229 7.44533 23.2536 7.264 24.0642 7.264C24.7896 7.264 25.4242 7.424 25.9682 7.744C26.5122 8.064 26.9336 8.54933 27.2323 9.2C27.5309 9.85067 27.6803 10.6827 27.6803 11.696C27.6803 12.6987 27.5363 13.5307 27.2483 14.192C26.9602 14.8427 26.5442 15.328 26.0002 15.648C25.4669 15.968 24.8216 16.128 24.0642 16.128ZM24.4962 14.08C24.9016 14.08 25.2696 13.984 25.6002 13.792C25.9309 13.6 26.1922 13.328 26.3842 12.976C26.5869 12.6133 26.6882 12.1867 26.6882 11.696C26.6882 11.1947 26.5869 10.768 26.3842 10.416C26.1922 10.064 25.9309 9.792 25.6002 9.6C25.2696 9.408 24.9016 9.312 24.4962 9.312C24.0802 9.312 23.7069 9.408 23.3762 9.6C23.0456 9.792 22.7789 10.064 22.5762 10.416C22.3842 10.768 22.2882 11.1947 22.2882 11.696C22.2882 12.1867 22.3842 12.6133 22.5762 12.976C22.7789 13.328 23.0456 13.6 23.3762 13.792C23.7069 13.984 24.0802 14.08 24.4962 14.08ZM26.7522 16V14.24L26.8003 11.68L26.6402 9.136V4.128H29.1362V16H26.7522ZM35.6224 16.128C34.8864 16.128 34.177 16.0427 33.4944 15.872C32.8224 15.6907 32.289 15.4667 31.8944 15.2L32.7264 13.408C33.121 13.6533 33.585 13.856 34.1184 14.016C34.6624 14.1653 35.1957 14.24 35.7184 14.24C36.2944 14.24 36.6997 14.1707 36.9344 14.032C37.1797 13.8933 37.3024 13.7013 37.3024 13.456C37.3024 13.2533 37.2064 13.104 37.0144 13.008C36.833 12.9013 36.5877 12.8213 36.2784 12.768C35.969 12.7147 35.6277 12.6613 35.2544 12.608C34.8917 12.5547 34.5237 12.4853 34.1504 12.4C33.777 12.304 33.4357 12.1653 33.1264 11.984C32.817 11.8027 32.5664 11.5573 32.3744 11.248C32.193 10.9387 32.1024 10.5387 32.1024 10.048C32.1024 9.504 32.257 9.024 32.5664 8.608C32.8864 8.192 33.345 7.86667 33.9424 7.632C34.5397 7.38667 35.2544 7.264 36.0864 7.264C36.673 7.264 37.2704 7.328 37.8784 7.456C38.4864 7.584 38.993 7.77067 39.3984 8.016L38.5664 9.792C38.1504 9.54667 37.729 9.38133 37.3024 9.296C36.8864 9.2 36.481 9.152 36.0864 9.152C35.5317 9.152 35.1264 9.22667 34.8704 9.376C34.6144 9.52533 34.4864 9.71733 34.4864 9.952C34.4864 10.1653 34.577 10.3253 34.7584 10.432C34.9504 10.5387 35.201 10.624 35.5104 10.688C35.8197 10.752 36.1557 10.8107 36.5184 10.864C36.8917 10.9067 37.265 10.976 37.6384 11.072C38.0117 11.168 38.3477 11.3067 38.6464 11.488C38.9557 11.6587 39.2064 11.8987 39.3984 12.208C39.5904 12.5067 39.6864 12.9013 39.6864 13.392C39.6864 13.9253 39.5264 14.4 39.2064 14.816C38.8864 15.2213 38.4224 15.5413 37.8144 15.776C37.217 16.0107 36.4864 16.128 35.6224 16.128ZM41.2104 16L46.2024 4.8H48.7624L53.7704 16H51.0504L46.9544 6.112H47.9784L43.8664 16H41.2104ZM43.7064 13.6L44.3944 11.632H50.1544L50.8584 13.6H43.7064ZM61.1244 16.128C60.399 16.128 59.7644 15.968 59.2204 15.648C58.6764 15.328 58.2497 14.8427 57.9404 14.192C57.6417 13.5307 57.4924 12.6987 57.4924 11.696C57.4924 10.6827 57.6364 9.85067 57.9244 9.2C58.2124 8.54933 58.6284 8.064 59.1724 7.744C59.7164 7.424 60.367 7.264 61.1244 7.264C61.935 7.264 62.6604 7.45067 63.3004 7.824C63.951 8.18667 64.463 8.69867 64.8364 9.36C65.2204 10.0213 65.4124 10.8 65.4124 11.696C65.4124 12.6027 65.2204 13.3867 64.8364 14.048C64.463 14.7093 63.951 15.2213 63.3004 15.584C62.6604 15.9467 61.935 16.128 61.1244 16.128ZM56.0364 19.104V7.392H58.4204V9.152L58.3724 11.712L58.5324 14.256V19.104H56.0364ZM60.6924 14.08C61.1084 14.08 61.4764 13.984 61.7964 13.792C62.127 13.6 62.3884 13.328 62.5804 12.976C62.783 12.6133 62.8844 12.1867 62.8844 11.696C62.8844 11.1947 62.783 10.768 62.5804 10.416C62.3884 10.064 62.127 9.792 61.7964 9.6C61.4764 9.408 61.1084 9.312 60.6924 9.312C60.2764 9.312 59.903 9.408 59.5724 9.6C59.2417 9.792 58.9804 10.064 58.7884 10.416C58.5964 10.768 58.5004 11.1947 58.5004 11.696C58.5004 12.1867 58.5964 12.6133 58.7884 12.976C58.9804 13.328 59.2417 13.6 59.5724 13.792C59.903 13.984 60.2764 14.08 60.6924 14.08ZM73.4513 16.128C72.7259 16.128 72.0913 15.968 71.5473 15.648C71.0033 15.328 70.5766 14.8427 70.2673 14.192C69.9686 13.5307 69.8193 12.6987 69.8193 11.696C69.8193 10.6827 69.9633 9.85067 70.2513 9.2C70.5393 8.54933 70.9553 8.064 71.4993 7.744C72.0433 7.424 72.6939 7.264 73.4513 7.264C74.2619 7.264 74.9873 7.45067 75.6273 7.824C76.2779 8.18667 76.7899 8.69867 77.1633 9.36C77.5473 10.0213 77.7393 10.8 77.7393 11.696C77.7393 12.6027 77.5473 13.3867 77.1633 14.048C76.7899 14.7093 76.2779 15.2213 75.6273 15.584C74.9873 15.9467 74.2619 16.128 73.4513 16.128ZM68.3633 19.104V7.392H70.7473V9.152L70.6993 11.712L70.8593 14.256V19.104H68.3633ZM73.0193 14.08C73.4353 14.08 73.8033 13.984 74.1233 13.792C74.4539 13.6 74.7153 13.328 74.9073 12.976C75.1099 12.6133 75.2113 12.1867 75.2113 11.696C75.2113 11.1947 75.1099 10.768 74.9073 10.416C74.7153 10.064 74.4539 9.792 74.1233 9.6C73.8033 9.408 73.4353 9.312 73.0193 9.312C72.6033 9.312 72.2299 9.408 71.8993 9.6C71.5686 9.792 71.3073 10.064 71.1153 10.416C70.9233 10.768 70.8273 11.1947 70.8273 11.696C70.8273 12.1867 70.9233 12.6133 71.1153 12.976C71.3073 13.328 71.5686 13.6 71.8993 13.792C72.2299 13.984 72.6033 14.08 73.0193 14.08Z" fill="black"/>
<defs>
<clipPath id="clip0_5828_482">
<rect width="18" height="18" fill="white" transform="translate(85 1)"/>
</clipPath>
</defs>
</svg>
